<mxfile host="app.diagrams.net" agent="Mozilla/5.0 (Windows NT 10.0; Win64; x64; rv:131.0) Gecko/20100101 Firefox/131.0" version="24.8.0" pages="3">
  <diagram name="第 1 页" id="Hu3Dzh2gflHLbhdXRFc0">
    <mxGraphModel grid="1" page="1" gridSize="10" guides="1" tooltips="1" connect="1" arrows="1" fold="1" pageScale="1" pageWidth="827" pageHeight="1169" math="0" shadow="0">
      <root>
        <mxCell id="0" />
        <mxCell id="1" parent="0" />
        <mxCell id="sBmf1wyZhFD_e2V0OpTe-9" value="2" style="edgeStyle=orthogonalEdgeStyle;rounded=0;orthogonalLoop=1;jettySize=auto;html=1;exitX=0.5;exitY=1;exitDx=0;exitDy=0;" edge="1" parent="1" source="sBmf1wyZhFD_e2V0OpTe-1" target="sBmf1wyZhFD_e2V0OpTe-2">
          <mxGeometry relative="1" as="geometry" />
        </mxCell>
        <mxCell id="sBmf1wyZhFD_e2V0OpTe-1" value="Proxy" style="rounded=1;whiteSpace=wrap;html=1;strokeWidth=2;fontSize=18;fontStyle=1" vertex="1" parent="1">
          <mxGeometry y="140" width="760" height="60" as="geometry" />
        </mxCell>
        <mxCell id="sBmf1wyZhFD_e2V0OpTe-10" value="3" style="edgeStyle=orthogonalEdgeStyle;rounded=0;orthogonalLoop=1;jettySize=auto;html=1;exitX=0.25;exitY=1;exitDx=0;exitDy=0;" edge="1" parent="1" source="sBmf1wyZhFD_e2V0OpTe-2" target="sBmf1wyZhFD_e2V0OpTe-3">
          <mxGeometry relative="1" as="geometry" />
        </mxCell>
        <mxCell id="sBmf1wyZhFD_e2V0OpTe-11" value="4" style="edgeStyle=orthogonalEdgeStyle;rounded=0;orthogonalLoop=1;jettySize=auto;html=1;exitX=0.75;exitY=1;exitDx=0;exitDy=0;" edge="1" parent="1" source="sBmf1wyZhFD_e2V0OpTe-2" target="sBmf1wyZhFD_e2V0OpTe-4">
          <mxGeometry relative="1" as="geometry" />
        </mxCell>
        <mxCell id="sBmf1wyZhFD_e2V0OpTe-13" value="5" style="edgeStyle=orthogonalEdgeStyle;rounded=0;orthogonalLoop=1;jettySize=auto;html=1;exitX=0.5;exitY=1;exitDx=0;exitDy=0;" edge="1" parent="1" source="sBmf1wyZhFD_e2V0OpTe-2" target="sBmf1wyZhFD_e2V0OpTe-12">
          <mxGeometry relative="1" as="geometry" />
        </mxCell>
        <mxCell id="sBmf1wyZhFD_e2V0OpTe-2" value="Gateway" style="rounded=1;whiteSpace=wrap;html=1;strokeWidth=2;fontSize=18;fontStyle=1;dashed=1;" vertex="1" parent="1">
          <mxGeometry y="260" width="760" height="60" as="geometry" />
        </mxCell>
        <mxCell id="sBmf1wyZhFD_e2V0OpTe-3" value="Authentication" style="rounded=1;whiteSpace=wrap;html=1;strokeWidth=2;fontSize=18;fontStyle=1" vertex="1" parent="1">
          <mxGeometry y="400" width="320" height="60" as="geometry" />
        </mxCell>
        <mxCell id="sBmf1wyZhFD_e2V0OpTe-4" value="Authorization" style="rounded=1;whiteSpace=wrap;html=1;strokeWidth=2;fontSize=18;fontStyle=1" vertex="1" parent="1">
          <mxGeometry x="440" y="400" width="320" height="60" as="geometry" />
        </mxCell>
        <mxCell id="sBmf1wyZhFD_e2V0OpTe-7" value="1" style="edgeStyle=orthogonalEdgeStyle;rounded=0;orthogonalLoop=1;jettySize=auto;html=1;exitX=0.5;exitY=1;exitDx=0;exitDy=0;entryX=0.25;entryY=0;entryDx=0;entryDy=0;" edge="1" parent="1" source="sBmf1wyZhFD_e2V0OpTe-5" target="sBmf1wyZhFD_e2V0OpTe-1">
          <mxGeometry relative="1" as="geometry" />
        </mxCell>
        <mxCell id="sBmf1wyZhFD_e2V0OpTe-5" value="B端Frontend Application" style="rounded=1;whiteSpace=wrap;html=1;strokeWidth=2;fontSize=18;fontStyle=1" vertex="1" parent="1">
          <mxGeometry x="1" y="30" width="320" height="60" as="geometry" />
        </mxCell>
        <mxCell id="sBmf1wyZhFD_e2V0OpTe-8" value="1" style="edgeStyle=orthogonalEdgeStyle;rounded=0;orthogonalLoop=1;jettySize=auto;html=1;exitX=0.5;exitY=1;exitDx=0;exitDy=0;entryX=0.75;entryY=0;entryDx=0;entryDy=0;" edge="1" parent="1" source="sBmf1wyZhFD_e2V0OpTe-6" target="sBmf1wyZhFD_e2V0OpTe-1">
          <mxGeometry relative="1" as="geometry" />
        </mxCell>
        <mxCell id="sBmf1wyZhFD_e2V0OpTe-6" value="3RD System" style="rounded=1;whiteSpace=wrap;html=1;strokeWidth=2;fontSize=18;fontStyle=1" vertex="1" parent="1">
          <mxGeometry x="440" y="30" width="320" height="60" as="geometry" />
        </mxCell>
        <mxCell id="sBmf1wyZhFD_e2V0OpTe-12" value="Backend Application" style="rounded=1;whiteSpace=wrap;html=1;strokeWidth=2;fontSize=18;fontStyle=1" vertex="1" parent="1">
          <mxGeometry x="220" y="510" width="320" height="60" as="geometry" />
        </mxCell>
        <mxCell id="sBmf1wyZhFD_e2V0OpTe-14" value="" style="shape=providedRequiredInterface;html=1;verticalLabelPosition=bottom;sketch=0;rotation=-90;" vertex="1" parent="1">
          <mxGeometry x="370" y="510" width="20" height="20" as="geometry" />
        </mxCell>
      </root>
    </mxGraphModel>
  </diagram>
  <diagram id="vrizpBRj_qSazFy3Q9nV" name="第 2 页">
    <mxGraphModel grid="1" page="1" gridSize="10" guides="1" tooltips="1" connect="1" arrows="1" fold="1" pageScale="1" pageWidth="827" pageHeight="1169" math="0" shadow="0">
      <root>
        <mxCell id="0" />
        <mxCell id="1" parent="0" />
        <mxCell id="5jNvomUb168tSHQsKWqj-1" value="定义安全基线" style="rounded=1;whiteSpace=wrap;html=1;fontSize=18;fontStyle=1;strokeWidth=2;" vertex="1" parent="1">
          <mxGeometry x="-120" y="170" width="200" height="80" as="geometry" />
        </mxCell>
        <mxCell id="5jNvomUb168tSHQsKWqj-2" value="与项目团队&lt;br&gt;&amp;amp;Apple确认基线&lt;br&gt;(可能会存在多轮讨论)" style="rounded=1;whiteSpace=wrap;html=1;fontSize=18;fontStyle=1;strokeWidth=2;" vertex="1" parent="1">
          <mxGeometry x="200" y="170" width="200" height="80" as="geometry" />
        </mxCell>
        <mxCell id="5jNvomUb168tSHQsKWqj-3" value="" style="shape=singleArrow;whiteSpace=wrap;html=1;strokeWidth=2;fontSize=18;" vertex="1" parent="1">
          <mxGeometry x="90" y="180" width="100" height="60" as="geometry" />
        </mxCell>
        <mxCell id="5jNvomUb168tSHQsKWqj-4" value="确定实施流程&amp;amp;检测方案&lt;br&gt;&amp;amp;初期改造方案及工作量" style="rounded=1;whiteSpace=wrap;html=1;fontSize=18;fontStyle=1;strokeWidth=2;" vertex="1" parent="1">
          <mxGeometry x="520" y="170" width="200" height="80" as="geometry" />
        </mxCell>
        <mxCell id="5jNvomUb168tSHQsKWqj-5" value="" style="shape=singleArrow;whiteSpace=wrap;html=1;strokeWidth=2;fontSize=18;" vertex="1" parent="1">
          <mxGeometry x="410" y="180" width="100" height="60" as="geometry" />
        </mxCell>
        <mxCell id="5jNvomUb168tSHQsKWqj-6" value="商务&amp;amp;合同" style="rounded=1;whiteSpace=wrap;html=1;fontSize=18;fontStyle=1;strokeWidth=2;" vertex="1" parent="1">
          <mxGeometry x="840" y="170" width="200" height="80" as="geometry" />
        </mxCell>
        <mxCell id="5jNvomUb168tSHQsKWqj-7" value="" style="shape=singleArrow;whiteSpace=wrap;html=1;strokeWidth=2;fontSize=18;" vertex="1" parent="1">
          <mxGeometry x="730" y="180" width="100" height="60" as="geometry" />
        </mxCell>
        <mxCell id="5jNvomUb168tSHQsKWqj-8" value="Apple项目团队培训&lt;br&gt;（基线及流程培训）" style="rounded=1;whiteSpace=wrap;html=1;fontSize=18;fontStyle=1;strokeWidth=2;" vertex="1" parent="1">
          <mxGeometry x="1160" y="170" width="200" height="80" as="geometry" />
        </mxCell>
        <mxCell id="5jNvomUb168tSHQsKWqj-9" value="" style="shape=singleArrow;whiteSpace=wrap;html=1;strokeWidth=2;fontSize=18;" vertex="1" parent="1">
          <mxGeometry x="1050" y="180" width="100" height="60" as="geometry" />
        </mxCell>
        <mxCell id="5jNvomUb168tSHQsKWqj-10" value="项目实施&lt;br&gt;初期安全改造&amp;amp;长期实施方案及流程落地到团队" style="rounded=1;whiteSpace=wrap;html=1;fontSize=18;fontStyle=1;strokeWidth=2;" vertex="1" parent="1">
          <mxGeometry x="1480" y="170" width="200" height="80" as="geometry" />
        </mxCell>
        <mxCell id="5jNvomUb168tSHQsKWqj-11" value="" style="shape=singleArrow;whiteSpace=wrap;html=1;strokeWidth=2;fontSize=18;" vertex="1" parent="1">
          <mxGeometry x="1370" y="180" width="100" height="60" as="geometry" />
        </mxCell>
      </root>
    </mxGraphModel>
  </diagram>
  <diagram id="cfT8GDJrwC31AmBL_dbl" name="batcher-order-routing">
    <mxGraphModel dx="1434" dy="706" grid="1" gridSize="10" guides="1" tooltips="1" connect="1" arrows="1" fold="1" page="1" pageScale="1" pageWidth="827" pageHeight="1169" math="0" shadow="0">
      <root>
        <mxCell id="0" />
        <mxCell id="1" parent="0" />
      </root>
    </mxGraphModel>
  </diagram>
</mxfile>
